<svg width="26" height="26" viewBox="0 0 26 26" fill="none" xmlns="http://www.w3.org/2000/svg">
<g clip-path="url(#clip0_6_88)">
<path fill-rule="evenodd" clip-rule="evenodd" d="M14.8571 5.57143C14.8571 8.64844 12.3627 11.1429 9.28571 11.1429C6.20871 11.1429 3.71429 8.64844 3.71429 5.57143C3.71429 2.49442 6.20871 0 9.28571 0C12.3627 0 14.8571 2.49442 14.8571 5.57143ZM19.9643 13.9286C20.7335 13.9286 21.3571 14.5522 21.3571 15.3214V18.5714H24.6071C25.3764 18.5714 26 19.1951 26 19.9643C26 20.7335 25.3764 21.3571 24.6071 21.3571H21.3571V24.6071C21.3571 25.3764 20.7335 26 19.9643 26C19.1951 26 18.5714 25.3764 18.5714 24.6071V21.3571H15.3214C14.5522 21.3571 13.9286 20.7335 13.9286 19.9643C13.9286 19.1951 14.5522 18.5714 15.3214 18.5714H18.5714V15.3214C18.5714 14.5522 19.1951 13.9286 19.9643 13.9286ZM9.28571 12.9999C12.0591 12.9999 14.5485 14.2158 16.25 16.1436V16.25H15.3214C13.2701 16.25 11.6071 17.9129 11.6071 19.9643C11.6071 21.3627 12.3799 22.5806 13.5218 23.2143H0.928571C0.415736 23.2143 0 22.7985 0 22.2857C0 17.1573 4.15736 12.9999 9.28571 12.9999Z" fill="black"/>
</g>
<defs>
<clipPath id="clip0_6_88">
<rect width="26" height="26" fill="white"/>
</clipPath>
</defs>
</svg>
